<?xml version="1.0" encoding="UTF-8" standalone="no" ?>
<!DOCTYPE svg PUBLIC "-//W3C//DTD SVG 1.1//EN" "http://www.w3.org/Graphics/SVG/1.1/DTD/svg11.dtd">
<svg xmlns="http://www.w3.org/2000/svg" xmlns:xlink="http://www.w3.org/1999/xlink" version="1.1" width="138.73250000000002" height="138.73250000000002" xml:space="preserve">
<desc>Created with Fabric.js 1.6.0-rc.1</desc>
<defs></defs>
<g style="stroke: none; stroke-width: 1; stroke-dasharray: none; stroke-linecap: butt; stroke-linejoin: miter; stroke-miterlimit: 10; fill: none; fill-rule: nonzero; opacity: 1;" transform="translate(10.000000000000007 10.000000000000007) scale(0.25 0.25)" >
  <circle cx="236.966" cy="236.966" r="236.966" style="stroke: none; stroke-width: 1; stroke-dasharray: none; stroke-linecap: butt; stroke-linejoin: miter; stroke-miterlimit: 10; fill: #009687; fill-rule: nonzero; opacity: 1;" transform="  matrix(1 0 0 1 0 0) "/>
  <path d="M 340.781 271.614 c 0 14.473 -11.745 26.204 -26.207 26.204 H 115.845 c -14.454 0 -26.2 -11.73 -26.2 -26.204 v -115.74 c 0 -14.469 11.745 -26.204 26.2 -26.204 h 198.729 c 14.462 0 26.207 11.734 26.207 26.204 L 340.781 271.614 L 340.781 271.614 z" style="stroke: none; stroke-width: 1; stroke-dasharray: none; stroke-linecap: butt; stroke-linejoin: miter; stroke-miterlimit: 10; fill: #f5f5f5; fill-rule: nonzero; opacity: 1;" transform=" matrix(1 0 0 1 0 0) " stroke-linecap="round" />
  <path d="M 121.749 333.088 c -2.054 2.058 -5.392 2.058 -7.446 0 l -0.322 -42.907 h 57.661 c 2.054 2.054 2.054 5.388 0 7.439 L 121.749 333.088 z" style="stroke: none; stroke-width: 1; stroke-dasharray: none; stroke-linecap: butt; stroke-linejoin: miter; stroke-miterlimit: 10; fill: #f5f5f5; fill-rule: nonzero; opacity: 1;" transform=" matrix(1 0 0 1 0 0) " stroke-linecap="round" />
  <path d="M 178.605 215.952 c 0 9.403 -7.629 17.029 -17.029 17.029 c -9.414 0 -17.021 -7.626 -17.021 -17.029 c 0 -9.403 7.607 -17.021 17.021 -17.021 C 170.976 198.927 178.605 206.549 178.605 215.952 z" style="stroke: none; stroke-width: 1; stroke-dasharray: none; stroke-linecap: butt; stroke-linejoin: miter; stroke-miterlimit: 10; fill: #B7CAC4; fill-rule: nonzero; opacity: 1;" transform=" matrix(1 0 0 1 0 0) " stroke-linecap="round" />
  <circle cx="214.929" cy="215.94899999999998" r="17.029" style="stroke: none; stroke-width: 1; stroke-dasharray: none; stroke-linecap: butt; stroke-linejoin: miter; stroke-miterlimit: 10; fill: #B7CAC4; fill-rule: nonzero; opacity: 1;" transform="  matrix(1 0 0 1 0 0) "/>
  <circle cx="267.125" cy="215.955" r="17.025" style="stroke: none; stroke-width: 1; stroke-dasharray: none; stroke-linecap: butt; stroke-linejoin: miter; stroke-miterlimit: 10; fill: #B7CAC4; fill-rule: nonzero; opacity: 1;" transform="  matrix(1 0 0 1 0 0) "/>
  <path d="M 135.803 299.244 c 0 14.469 11.738 26.2 26.207 26.2 h 198.729 c 14.454 0 26.192 -11.73 26.192 -26.2 v -115.74 c 0 -14.469 -11.738 -26.204 -26.192 -26.204 H 162.011 c -14.469 0 -26.207 11.734 -26.207 26.204 V 299.244 z" style="stroke: none; stroke-width: 1; stroke-dasharray: none; stroke-linecap: butt; stroke-linejoin: miter; stroke-miterlimit: 10; fill: #2e323d; fill-rule: nonzero; opacity: 1;" transform=" matrix(1 0 0 1 0 0) " stroke-linecap="round" />
  <path d="M 354.835 360.717 c 2.054 2.058 5.384 2.058 7.446 0 l 0.322 -42.911 h -57.661 c -2.054 2.054 -2.054 5.388 0 7.442 L 354.835 360.717 z" style="stroke: none; stroke-width: 1; stroke-dasharray: none; stroke-linecap: butt; stroke-linejoin: miter; stroke-miterlimit: 10; fill: #2e323d; fill-rule: nonzero; opacity: 1;" transform=" matrix(1 0 0 1 0 0) " stroke-linecap="round" />
  <path d="M 297.979 243.581 c 0 9.403 7.622 17.025 17.029 17.025 c 9.414 0 17.021 -7.622 17.021 -17.025 s -7.607 -17.021 -17.021 -17.021 C 305.601 226.56 297.979 234.182 297.979 243.581 z" style="stroke: none; stroke-width: 1; stroke-dasharray: none; stroke-linecap: butt; stroke-linejoin: miter; stroke-miterlimit: 10; fill: #B7CAC4; fill-rule: nonzero; opacity: 1;" transform=" matrix(1 0 0 1 0 0) " stroke-linecap="round" />
  <circle cx="261.66499999999996" cy="243.585" r="17.025" style="stroke: none; stroke-width: 1; stroke-dasharray: none; stroke-linecap: butt; stroke-linejoin: miter; stroke-miterlimit: 10; fill: #B7CAC4; fill-rule: nonzero; opacity: 1;" transform="  matrix(1 0 0 1 0 0) "/>
  <path d="M 192.435 243.581 c 0 9.403 7.629 17.025 17.021 17.025 c 9.414 0 17.029 -7.622 17.029 -17.025 s -7.614 -17.021 -17.029 -17.021 C 200.064 226.56 192.435 234.182 192.435 243.581 z" style="stroke: none; stroke-width: 1; stroke-dasharray: none; stroke-linecap: butt; stroke-linejoin: miter; stroke-miterlimit: 10; fill: #B7CAC4; fill-rule: nonzero; opacity: 1;" transform=" matrix(1 0 0 1 0 0) " stroke-linecap="round" />
</g>
</svg>